<svg width="80" height="80" viewBox="0 0 80 80" fill="none" xmlns="http://www.w3.org/2000/svg">
<path d="M54.3267 27.6267L59.0067 32.3767L39.6967 51.4C38.4067 52.69 36.71 53.3333 35.0067 53.3333C33.3033 53.3333 31.59 52.6833 30.2867 51.3833L21.0133 42.3967L25.6567 37.6067L34.9667 46.63L54.3267 27.6267ZM80 40C80 62.0567 62.0567 80 40 80C17.9433 80 0 62.0567 0 40C0 17.9433 17.9433 0 40 0C62.0567 0 80 17.9433 80 40ZM73.3333 40C73.3333 21.62 58.38 6.66667 40 6.66667C21.62 6.66667 6.66667 21.62 6.66667 40C6.66667 58.38 21.62 73.3333 40 73.3333C58.38 73.3333 73.3333 58.38 73.3333 40Z" fill="#DD4756"/>
</svg>
