<svg width="36" height="31" viewBox="0 0 36 31" fill="none" xmlns="http://www.w3.org/2000/svg">
<path d="M9.99688 12.0967C11.159 12.0967 12.1844 13.1221 12.1844 14.2842C12.1844 15.5146 11.159 16.4717 9.99688 16.4717C8.76641 16.4717 7.80938 15.5146 7.80938 14.2842C7.80938 13.1221 8.76641 12.0967 9.99688 12.0967ZM17.6531 12.0967C18.8152 12.0967 19.8406 13.1221 19.8406 14.2842C19.8406 15.5146 18.8152 16.4717 17.6531 16.4717C16.4227 16.4717 15.4656 15.5146 15.4656 14.2842C15.4656 13.1221 16.4227 12.0967 17.6531 12.0967ZM25.3094 12.0967C26.4715 12.0967 27.4969 13.1221 27.4969 14.2842C27.4969 15.5146 26.4715 16.4717 25.3094 16.4717C24.0789 16.4717 23.1219 15.5146 23.1219 14.2842C23.1219 13.1221 24.0789 12.0967 25.3094 12.0967ZM17.6531 0.0654297C27.2918 0.0654297 35.1531 6.49121 35.1531 14.2842C35.1531 22.1455 27.2918 28.5029 17.6531 28.5029C15.3973 28.5029 13.2781 28.1611 11.2957 27.5459C9.31328 28.9814 5.96367 30.6904 1.79375 30.6904C1.11016 30.6904 0.494923 30.3486 0.221485 29.7334C0.016407 29.1182 0.0847664 28.4346 0.563282 27.9561C0.631641 27.9561 2.75078 25.6318 3.70781 22.9658C1.45195 20.5732 0.153126 17.5654 0.153126 14.2842C0.153126 6.49121 7.94609 0.0654297 17.6531 0.0654297ZM17.6531 25.2217C25.4461 25.2217 31.8719 20.3682 31.8719 14.2842C31.8719 8.26855 25.4461 3.34668 17.6531 3.34668C9.7918 3.34668 3.43438 8.26855 3.43438 14.2842C3.43438 17.2236 4.86992 19.4111 6.10039 20.71L7.53594 22.2139L6.78399 24.1279C6.44219 25.085 5.96367 26.042 5.4168 26.8623C7.05742 26.3154 8.42461 25.5635 9.38164 24.8799L10.6805 23.9229L12.2527 24.4014C13.9617 24.9482 15.8074 25.2217 17.6531 25.2217Z" fill="#333333"/>
</svg>
