<svg width="80" height="80" viewBox="0 0 80 80" fill="none" xmlns="http://www.w3.org/2000/svg">
<path d="M46.6667 32.7273C46.6667 36.4327 45.64 39.8691 43.8933 42.7418L34.31 32.2873C33.6833 31.6036 33.3333 30.68 33.3333 29.7164V14.9127C40.94 16.5964 46.6667 23.9309 46.6667 32.7273ZM26.6667 31.2218V14.9127C18.1667 16.7964 12.0133 25.7345 13.5767 35.8836C14.66 42.9164 19.6433 48.7673 26.0067 50.4C30.9067 51.6545 35.54 50.52 39.18 47.8873L28.6167 36.3636C27.3667 35 26.6667 33.1491 26.6667 31.2218ZM63.3333 14.5455H56.6667C54.8233 14.5455 53.3333 16.1745 53.3333 18.1818C53.3333 20.1891 54.8233 21.8182 56.6667 21.8182H63.3333C65.1767 21.8182 66.6667 20.1891 66.6667 18.1818C66.6667 16.1745 65.1767 14.5455 63.3333 14.5455ZM63.3333 29.0909H56.6667C54.8233 29.0909 53.3333 30.72 53.3333 32.7273C53.3333 34.7345 54.8233 36.3636 56.6667 36.3636H63.3333C65.1767 36.3636 66.6667 34.7345 66.6667 32.7273C66.6667 30.72 65.1767 29.0909 63.3333 29.0909ZM63.3333 43.6364H56.6667C54.8233 43.6364 53.3333 45.2655 53.3333 47.2727C53.3333 49.28 54.8233 50.9091 56.6667 50.9091H63.3333C65.1767 50.9091 66.6667 49.28 66.6667 47.2727C66.6667 45.2655 65.1767 43.6364 63.3333 43.6364ZM80 18.1818V47.2727C80 57.2982 72.5233 65.4545 63.3333 65.4545H43.3333V72.7273H56.6667C58.51 72.7273 60 74.3564 60 76.3636C60 78.3709 58.51 80 56.6667 80H23.3333C21.49 80 20 78.3709 20 76.3636C20 74.3564 21.49 72.7273 23.3333 72.7273H36.6667V65.4545H16.6667C7.47667 65.4545 0 57.2982 0 47.2727V18.1818C0 8.15636 7.47667 0 16.6667 0H63.3333C72.5233 0 80 8.15636 80 18.1818ZM73.3333 18.1818C73.3333 12.1673 68.8467 7.27273 63.3333 7.27273H16.6667C11.1533 7.27273 6.66667 12.1673 6.66667 18.1818V47.2727C6.66667 53.2873 11.1533 58.1818 16.6667 58.1818H63.3333C68.8467 58.1818 73.3333 53.2873 73.3333 47.2727V18.1818Z" fill="#DD4756"/>
</svg>
