<svg width="64" height="45" viewBox="0 0 64 45" fill="none" xmlns="http://www.w3.org/2000/svg">
<path d="M10.3211 19.125C6.80547 19.125 4.07109 16.3906 4.07109 12.875C4.07109 9.45703 6.80547 6.625 10.3211 6.625C13.7391 6.625 16.5711 9.45703 16.5711 12.875C16.5711 16.3906 13.7391 19.125 10.3211 19.125ZM54.0711 19.125C50.5555 19.125 47.8211 16.3906 47.8211 12.875C47.8211 9.45703 50.5555 6.625 54.0711 6.625C57.4891 6.625 60.3211 9.45703 60.3211 12.875C60.3211 16.3906 57.4891 19.125 54.0711 19.125ZM57.1961 22.25C60.6141 22.25 63.4461 25.082 63.4461 28.5V31.625C63.4461 33.3828 61.9813 34.75 60.3211 34.75H53.8758C53.1922 30.1602 50.4578 26.2539 46.4539 24.1055C47.6258 23.0312 49.1883 22.25 50.9461 22.25H57.1961ZM32.1961 22.25C26.1414 22.25 21.2586 17.3672 21.2586 11.3125C21.2586 5.35547 26.1414 0.375 32.1961 0.375C38.1531 0.375 43.1336 5.35547 43.1336 11.3125C43.1336 17.3672 38.1531 22.25 32.1961 22.25ZM39.618 25.375C45.868 25.375 50.9461 30.4531 50.9461 36.7031V39.4375C50.9461 42.0742 48.7977 44.125 46.2586 44.125H18.1336C15.4969 44.125 13.4461 42.0742 13.4461 39.4375V36.7031C13.4461 30.4531 18.4266 25.375 24.6766 25.375H25.4578C27.5086 26.3516 29.7547 26.9375 32.1961 26.9375C34.5398 26.9375 36.7859 26.3516 38.8367 25.375H39.618ZM17.8406 24.1055C13.8367 26.2539 11.1023 30.1602 10.4188 34.75H4.07109C2.31328 34.75 0.946095 33.3828 0.946095 31.625V28.5C0.946095 25.082 3.68047 22.25 7.19609 22.25H13.4461C15.1063 22.25 16.6688 23.0312 17.8406 24.1055Z" fill="#E33439"/>
</svg>
