<svg width="64" height="39" viewBox="0 0 64 39" fill="none" xmlns="http://www.w3.org/2000/svg">
<path d="M43.3289 0.5C44.2078 0.5 44.9891 0.890625 45.575 1.47656L50.8484 6.75V25.6953C50.6531 25.4023 50.3602 25.207 50.1648 24.9141L35.907 13.3906L38.4461 11.0469C39.1297 10.4609 39.1297 9.48438 38.5438 8.89844C37.9578 8.21484 36.9813 8.21484 36.2977 8.80078L28.5828 15.9297C28.4852 15.9297 28.4852 15.9297 28.4852 15.9297C26.825 17.3945 24.2859 17.0039 23.0164 15.6367C21.6492 14.1719 21.6492 11.7305 23.2117 10.168L32.8797 1.37891C33.4656 0.792969 34.1492 0.5 34.9305 0.5H43.3289ZM54.0711 6.84766H63.4461V31.8477H57.1961C55.4383 31.8477 54.0711 30.3828 54.0711 28.7227V6.84766ZM58.7586 28.7227C59.5398 28.7227 60.3211 27.9414 60.3211 27.1602C60.3211 26.2812 59.5398 25.5977 58.7586 25.5977C57.8797 25.5977 57.1961 26.2812 57.1961 27.1602C57.1961 27.9414 57.8797 28.7227 58.7586 28.7227ZM0.946095 31.75V6.84766H10.3211V28.625C10.3211 30.3828 8.85625 31.75 7.19609 31.75H0.946095ZM5.63359 25.5977C4.75469 25.5977 4.07109 26.2812 4.07109 27.1602C4.07109 27.9414 4.75469 28.7227 5.63359 28.7227C6.41484 28.7227 7.19609 27.9414 7.19609 27.1602C7.19609 26.2812 6.41484 25.5977 5.63359 25.5977ZM48.1141 27.3555C49.4813 28.4297 49.6766 30.3828 48.6023 31.75L47.7234 32.9219C46.5516 34.2891 44.5984 34.4844 43.3289 33.4102L42.743 32.9219L39.7156 36.7305C38.4461 38.293 36.1023 38.4883 34.5398 37.2188L32.8797 35.7539H32.782C30.6336 38.3906 26.7273 38.8789 23.993 36.6328L15.2039 28.625H13.4461V6.75L18.7195 1.47656C19.3055 0.890625 20.0867 0.5 20.9656 0.5H29.1688L21.1609 7.82422C18.3289 10.4609 18.1336 14.9531 20.6727 17.7852C23.3094 20.6172 27.7039 20.9102 30.6336 18.1758L33.5633 15.5391L48.1141 27.3555Z" fill="#E33439"/>
</svg>
