<svg width="70" height="70" viewBox="0 0 70 70" fill="none" xmlns="http://www.w3.org/2000/svg">
<circle cx="35" cy="35" r="33.5" fill="white" stroke="#DD4756" stroke-width="3"/>
<path d="M37.2508 36.5C37.5008 36.5 37.7508 36.75 37.7508 37V38C37.7508 38.3125 37.5008 38.5 37.2508 38.5H33.2508C32.9383 38.5 32.7508 38.3125 32.7508 38V37C32.7508 36.75 32.9383 36.5 33.2508 36.5H34.2508V33.0625H34.1883C34.1258 33.125 34.0008 33.1875 33.9383 33.1875C33.7508 33.1875 33.5633 33.0625 33.5008 32.9375L32.9383 32.125C32.8758 32.0625 32.8758 31.9375 32.8758 31.8125C32.8758 31.6875 32.9383 31.5 33.0633 31.4375L34.0633 30.8125C34.3133 30.625 34.5633 30.5 34.8758 30.5H35.7508C36.0008 30.5 36.2508 30.75 36.2508 31V36.5H37.2508ZM53.2508 22.5C54.3133 22.5 55.2508 23.4375 55.2508 24.5V44.5C55.2508 45.625 54.3133 46.5 53.2508 46.5H17.2508C16.1258 46.5 15.2508 45.625 15.2508 44.5V24.5C15.2508 23.4375 16.1258 22.5 17.2508 22.5H53.2508ZM18.2508 43.5H22.2508C22.2508 41.3125 20.4383 39.5 18.2508 39.5V43.5ZM18.2508 29.5C20.4383 29.5 22.2508 27.75 22.2508 25.5H18.2508V29.5ZM35.2508 41.5C38.5633 41.5 41.2508 38.375 41.2508 34.5C41.2508 30.6875 38.5633 27.5 35.2508 27.5C31.8758 27.5 29.2508 30.6875 29.2508 34.5C29.2508 38.375 31.8758 41.5 35.2508 41.5ZM52.2508 43.5V39.5C50.0008 39.5 48.2508 41.3125 48.2508 43.5H52.2508ZM52.2508 29.5V25.5H48.2508C48.2508 27.75 50.0008 29.5 52.2508 29.5Z" fill="#DD4756"/>
</svg>
