<svg width="70" height="70" viewBox="0 0 70 70" fill="none" xmlns="http://www.w3.org/2000/svg">
<circle cx="35" cy="35" r="33.5" fill="white" stroke="#DD4756" stroke-width="3"/>
<path d="M48.5719 19.625C48.7594 19.5625 48.9469 19.5625 49.1969 19.5625C50.2594 19.5625 51.1344 20.4375 51.1969 21.5V43.5C51.1969 45.75 48.5094 47.5 45.1969 47.5C41.8844 47.5 39.1969 45.75 39.1969 43.5C39.1969 41.3125 41.8844 39.5 45.1969 39.5C45.8844 39.5625 46.5094 39.625 47.1969 39.75V28.25L31.1969 32.9375V47.5C31.1969 49.75 28.5094 51.5 25.1969 51.5C21.8844 51.5 19.1969 49.75 19.1969 47.5C19.1969 45.3125 21.8844 43.5 25.1969 43.5C25.8844 43.5625 26.5094 43.625 27.1969 43.75V27.4375C27.1969 26.5625 27.7594 25.8125 28.5719 25.5L48.5719 19.625Z" fill="#DD4756"/>
</svg>
