<svg width="70" height="70" viewBox="0 0 70 70" fill="none" xmlns="http://www.w3.org/2000/svg">
<circle cx="35" cy="35" r="33.5" fill="white" stroke="#DD4756" stroke-width="3"/>
<path d="M44.9344 24.625C47.5594 27.25 49.1844 30.6875 49.1844 34.4375C49.1844 42.0625 42.8094 48.3125 35.1219 48.3125C32.8094 48.3125 30.5594 47.6875 28.4969 46.625L21.1844 48.5L23.1219 41.3125C21.9344 39.25 21.2469 36.875 21.2469 34.375C21.2469 26.75 27.4969 20.5 35.1219 20.5C38.8719 20.5 42.3719 22 44.9344 24.625ZM35.1219 45.9375C41.4969 45.9375 46.8094 40.75 46.8094 34.4375C46.8094 31.3125 45.4969 28.4375 43.3094 26.25C41.1219 24.0625 38.2469 22.875 35.1844 22.875C28.8094 22.875 23.6219 28.0625 23.6219 34.375C23.6219 36.5625 24.2469 38.6875 25.3719 40.5625L25.6844 41L24.4969 45.25L28.8719 44.0625L29.2469 44.3125C31.0594 45.375 33.0594 45.9375 35.1219 45.9375ZM41.4969 37.3125C41.8094 37.5 42.0594 37.5625 42.1219 37.75C42.2469 37.875 42.2469 38.5625 41.9344 39.375C41.6219 40.1875 40.2469 40.9375 39.6219 41C38.4969 41.1875 37.6219 41.125 35.4344 40.125C31.9344 38.625 29.6844 35.125 29.4969 34.9375C29.3094 34.6875 28.1219 33.0625 28.1219 31.3125C28.1219 29.625 28.9969 28.8125 29.3094 28.4375C29.6219 28.0625 29.9969 28 30.2469 28C30.4344 28 30.6844 28 30.8719 28C31.1219 28 31.3719 27.9375 31.6844 28.625C31.9344 29.3125 32.6844 31 32.7469 31.1875C32.8094 31.375 32.8719 31.5625 32.7469 31.8125C32.1219 33.125 31.3719 33.0625 31.7469 33.6875C33.1219 36 34.4344 36.8125 36.4969 37.8125C36.8094 38 36.9969 37.9375 37.2469 37.75C37.4344 37.5 38.1219 36.6875 38.3094 36.375C38.5594 36 38.8094 36.0625 39.1219 36.1875C39.4344 36.3125 41.1219 37.125 41.4969 37.3125Z" fill="#DD4756"/>
</svg>
