<svg width="80" height="80" viewBox="0 0 80 80" fill="none" xmlns="http://www.w3.org/2000/svg">
<path fill-rule="evenodd" clip-rule="evenodd" d="M68.3475 11.6267C60.8248 4.13333 50.8235 0.00333333 40.1691 0C18.2139 0 0.344986 17.78 0.334938 39.64C0.331589 46.6267 2.16705 53.4467 5.65376 59.46L0 80L21.1145 74.4867C26.9324 77.6467 33.4838 79.31 40.149 79.3133H40.1658C62.1176 79.3133 79.9899 61.53 80 39.67C80.0067 29.08 75.8669 19.1167 68.3475 11.6267ZM40.1691 72.6167H40.1557C34.2139 72.6167 28.3894 71.0267 23.305 68.0233L22.0959 67.31L9.56584 70.58L12.9119 58.42L12.1248 57.1733C8.80888 51.9267 7.0605 45.8633 7.06385 39.64C7.07055 21.4733 21.9251 6.69333 40.1859 6.69333C49.0283 6.69333 57.3414 10.1267 63.5914 16.3533C69.8413 22.5833 73.2811 30.86 73.2778 39.6633C73.2677 57.8367 58.4166 72.6167 40.1691 72.6167ZM58.3295 47.94C57.3347 47.4433 52.4413 45.0467 51.5269 44.7167C50.6159 44.3867 49.9527 44.22 49.2862 45.21C48.6196 46.2 46.7172 48.4333 46.1344 49.0967C45.5549 49.7567 44.9722 49.84 43.9774 49.3433C42.9826 48.8467 39.7739 47.8033 35.9724 44.4267C33.0149 41.8 31.0153 38.5567 30.4358 37.5633C29.8564 36.57 30.3755 36.0367 30.8713 35.5433C31.3201 35.1 31.866 34.3867 32.3651 33.8067C32.8675 33.2333 33.0316 32.82 33.3665 32.1567C33.6981 31.4967 33.534 30.9167 33.2828 30.42C33.0316 29.9267 31.0421 25.05 30.2148 23.0667C29.4076 21.1333 28.587 21.3967 27.974 21.3667C27.3946 21.3367 26.7314 21.3333 26.0649 21.3333C25.4017 21.3333 24.3232 21.58 23.4122 22.5733C22.5011 23.5667 19.9288 25.9633 19.9288 30.8367C19.9288 35.7133 23.4959 40.4233 23.9916 41.0833C24.4873 41.7433 31.0086 51.75 40.9931 56.04C43.3678 57.06 45.2234 57.67 46.6669 58.1267C49.0517 58.88 51.2221 58.7733 52.937 58.52C54.8495 58.2367 58.8252 56.1233 59.6558 53.81C60.4865 51.4967 60.4865 49.51 60.2353 49.1C59.9874 48.6833 59.3243 48.4367 58.3295 47.94Z" fill="#DD4756"/>
</svg>
