<svg width="50" height="80" viewBox="0 0 50 80" fill="none" xmlns="http://www.w3.org/2000/svg">
<path d="M34.5156 0.00250003C34.4312 -0.000833342 15.5687 -0.000833342 15.4844 0.00250003C6.93437 0.0825009 0 7.52925 0 16.666V63.3332C0 72.5233 7.00938 80 15.625 80H34.375C42.9906 80 50 72.5233 50 63.3332V16.6693C50 7.52925 43.0656 0.0858342 34.5156 0.00250003ZM43.75 63.3332C43.75 68.8465 39.5438 73.3333 34.375 73.3333H15.625C10.4562 73.3333 6.25 68.8465 6.25 63.3332V16.6693C6.25 11.826 9.49375 7.77925 13.7844 6.86257L15.9531 11.4926C16.4812 12.6226 17.5656 13.336 18.75 13.336H31.25C32.4344 13.336 33.5156 12.6226 34.0469 11.4926L36.2156 6.86257C40.5062 7.77591 43.75 11.826 43.75 16.6693V63.3332ZM28.125 66.6665H21.875C20.15 66.6665 18.75 65.1732 18.75 63.3332C18.75 61.4931 20.15 59.9998 21.875 59.9998H28.125C29.85 59.9998 31.25 61.4931 31.25 63.3332C31.25 65.1732 29.85 66.6665 28.125 66.6665Z" fill="#DD4756"/>
</svg>
