<svg width="70" height="70" viewBox="0 0 70 70" fill="none" xmlns="http://www.w3.org/2000/svg">
<circle cx="35" cy="35" r="33.5" fill="white" stroke="#DD4756" stroke-width="3"/>
<path d="M47.2867 30.5C49.4742 30.5 51.2867 32.3125 51.2867 34.5V41.5C51.2867 42.0625 50.7867 42.5 50.2867 42.5H47.2867V48.5C47.2867 49.625 46.3492 50.5 45.2867 50.5H25.2867C24.1617 50.5 23.2867 49.625 23.2867 48.5V42.5H20.2867C19.7242 42.5 19.2867 42.0625 19.2867 41.5V34.5C19.2867 32.3125 21.0367 30.5 23.2867 30.5V20.5C23.2867 19.4375 24.1617 18.5 25.2867 18.5H42.4117C42.9742 18.5 43.4742 18.75 43.8492 19.125L46.6617 21.9375C47.0367 22.3125 47.2867 22.8125 47.2867 23.375V30.5ZM43.2867 46.5V40.5H27.2867V46.5H43.2867ZM43.2867 32.5V26.5H40.2867C39.7242 26.5 39.2867 26.0625 39.2867 25.5V22.5H27.2867V32.5H43.2867ZM46.2867 37C47.0992 37 47.7867 36.375 47.7867 35.5C47.7867 34.6875 47.0992 34 46.2867 34C45.4117 34 44.7867 34.6875 44.7867 35.5C44.7867 36.375 45.4117 37 46.2867 37Z" fill="#DD4756"/>
</svg>
