<svg width="80" height="80" viewBox="0 0 80 80" fill="none" xmlns="http://www.w3.org/2000/svg">
<path d="M28.3333 13.3333H21.6667C17.0733 13.3333 13.3333 17.0733 13.3333 21.6667V28.3333C13.3333 32.9267 17.0733 36.6667 21.6667 36.6667H28.3333C32.9267 36.6667 36.6667 32.9267 36.6667 28.3333V21.6667C36.6667 17.0733 32.9267 13.3333 28.3333 13.3333ZM30 28.3333C30 29.2533 29.2533 30 28.3333 30H21.6667C20.7467 30 20 29.2533 20 28.3333V21.6667C20 20.7467 20.7467 20 21.6667 20H28.3333C29.2533 20 30 20.7467 30 21.6667V28.3333ZM51.6667 36.6667H58.3333C62.9267 36.6667 66.6667 32.9267 66.6667 28.3333V21.6667C66.6667 17.0733 62.9267 13.3333 58.3333 13.3333H51.6667C47.0733 13.3333 43.3333 17.0733 43.3333 21.6667V28.3333C43.3333 32.9267 47.0733 36.6667 51.6667 36.6667ZM50 21.6667C50 20.7467 50.7467 20 51.6667 20H58.3333C59.2533 20 60 20.7467 60 21.6667V28.3333C60 29.2533 59.2533 30 58.3333 30H51.6667C50.7467 30 50 29.2533 50 28.3333V21.6667ZM28.3333 43.3333H21.6667C17.0733 43.3333 13.3333 47.0733 13.3333 51.6667V58.3333C13.3333 62.9267 17.0733 66.6667 21.6667 66.6667H28.3333C32.9267 66.6667 36.6667 62.9267 36.6667 58.3333V51.6667C36.6667 47.0733 32.9267 43.3333 28.3333 43.3333ZM30 58.3333C30 59.2533 29.2533 60 28.3333 60H21.6667C20.7467 60 20 59.2533 20 58.3333V51.6667C20 50.7467 20.7467 50 21.6667 50H28.3333C29.2533 50 30 50.7467 30 51.6667V58.3333ZM26.6667 76.6667C26.6667 78.5067 25.1733 80 23.3333 80H16.6667C7.47667 80 0 72.5233 0 63.3333V56.6667C0 54.8267 1.49333 53.3333 3.33333 53.3333C5.17333 53.3333 6.66667 54.8267 6.66667 56.6667V63.3333C6.66667 68.8467 11.1533 73.3333 16.6667 73.3333H23.3333C25.1733 73.3333 26.6667 74.8267 26.6667 76.6667ZM80 56.6667V63.3333C80 72.5233 72.5233 80 63.3333 80H56.6667C54.8267 80 53.3333 78.5067 53.3333 76.6667C53.3333 74.8267 54.8267 73.3333 56.6667 73.3333H63.3333C68.8467 73.3333 73.3333 68.8467 73.3333 63.3333V56.6667C73.3333 54.8267 74.8267 53.3333 76.6667 53.3333C78.5067 53.3333 80 54.8267 80 56.6667ZM80 16.6667V23.3333C80 25.1733 78.5067 26.6667 76.6667 26.6667C74.8267 26.6667 73.3333 25.1733 73.3333 23.3333V16.6667C73.3333 11.1533 68.8467 6.66667 63.3333 6.66667H56.6667C54.8267 6.66667 53.3333 5.17333 53.3333 3.33333C53.3333 1.49333 54.8267 0 56.6667 0H63.3333C72.5233 0 80 7.47667 80 16.6667ZM0 23.3333V16.6667C0 7.47667 7.47667 0 16.6667 0H23.3333C25.1733 0 26.6667 1.49333 26.6667 3.33333C26.6667 5.17333 25.1733 6.66667 23.3333 6.66667H16.6667C11.1533 6.66667 6.66667 11.1533 6.66667 16.6667V23.3333C6.66667 25.1733 5.17333 26.6667 3.33333 26.6667C1.49333 26.6667 0 25.1733 0 23.3333ZM53.3333 61.6667C53.3333 64.4267 51.0933 66.6667 48.3333 66.6667C45.5733 66.6667 43.3333 64.4267 43.3333 61.6667C43.3333 58.9067 45.5733 56.6667 48.3333 56.6667C51.0933 56.6667 53.3333 58.9067 53.3333 61.6667ZM61.6667 43.3333C64.4267 43.3333 66.6667 45.5733 66.6667 48.3333C66.6667 51.0933 64.4267 53.3333 61.6667 53.3333C58.9067 53.3333 56.6667 51.0933 56.6667 48.3333C56.6667 45.5733 58.9067 43.3333 61.6667 43.3333ZM43.3333 48.3333C43.3333 45.5733 45.5733 43.3333 48.3333 43.3333C51.0933 43.3333 53.3333 45.5733 53.3333 48.3333C53.3333 51.0933 51.0933 53.3333 48.3333 53.3333C45.5733 53.3333 43.3333 51.0933 43.3333 48.3333Z" fill="#DD4756"/>
</svg>
