<svg width="70" height="70" viewBox="0 0 70 70" fill="none" xmlns="http://www.w3.org/2000/svg">
<circle cx="35" cy="35" r="33.5" fill="white" stroke="#DD4756" stroke-width="3"/>
<path d="M47.1609 31.5C51.5359 31.5625 55.0984 35.125 55.1609 39.4375C55.1609 43.9375 51.5359 47.5625 47.0359 47.5C42.7234 47.5 39.1609 43.9375 39.1609 39.5625C39.0984 37.125 40.2234 34.9375 41.9109 33.4375L41.1609 32.125C38.7234 34.125 37.5359 37 37.6609 39.9375C37.6609 40.8125 36.9734 41.5 36.1609 41.5H30.9109C29.9734 45 26.8484 47.5 23.1609 47.5C18.6609 47.5 15.0359 43.875 15.1609 39.3125C15.2234 35.125 18.5984 31.6875 22.8484 31.5625C23.7234 31.5 24.5984 31.625 25.4109 31.875L26.0984 30.5625C25.5359 29.6875 24.6609 29 23.1609 29H19.6609C18.7859 29 18.1609 28.375 18.1609 27.5625C18.0984 26.6875 18.8484 26 19.6609 26H23.1609C26.5984 26 28.2859 27.0625 29.3484 28.5H38.9734L37.7859 26.5H33.6609C33.0984 26.5 32.6609 26.0625 32.6609 25.5V24.5C32.6609 24 33.0984 23.5 33.6609 23.5H38.6609C39.1609 23.5 39.6609 23.8125 39.9109 24.25L41.3484 26.625L43.6609 24C43.9734 23.6875 44.3484 23.5 44.7859 23.5H47.6609C48.4734 23.5 49.1609 24.1875 49.1609 25V27C49.1609 27.875 48.4734 28.5 47.6609 28.5H42.4734L44.5359 31.9375C45.3484 31.6875 46.2859 31.5 47.1609 31.5ZM23.1609 44.5C25.1609 44.5 26.9109 43.3125 27.7234 41.5H22.6609C21.4734 41.5 20.7859 40.3125 21.3484 39.3125L23.9109 34.5625C23.6609 34.5625 23.4109 34.5 23.1609 34.5C20.3484 34.5 18.1609 36.75 18.1609 39.5C18.1609 42.3125 20.3484 44.5 23.1609 44.5ZM52.0984 39.8125C52.2859 36.9375 49.9734 34.5 47.1609 34.5625C46.7859 34.5625 46.4734 34.5625 46.1609 34.625L49.1609 39.6875C49.4734 40.1875 49.2859 40.8125 48.8484 41.0625L47.9734 41.5625C47.4734 41.875 46.9109 41.6875 46.5984 41.25L43.5359 36.0625C42.6609 37 42.1609 38.1875 42.1609 39.5C42.1609 42.375 44.5359 44.6875 47.4109 44.5C49.9109 44.375 51.9734 42.3125 52.0984 39.8125Z" fill="#DD4756"/>
</svg>
