<svg width="50" height="49" viewBox="0 0 50 49" fill="none" xmlns="http://www.w3.org/2000/svg">
<path d="M25.1741 0.03125C38.553 0.03125 49.3929 10.8711 49.3929 24.25C49.3929 37.6289 38.553 48.4688 25.1741 48.4688C11.7952 48.4688 0.955374 37.6289 0.955374 24.25C0.955374 10.8711 11.7952 0.03125 25.1741 0.03125ZM25.1741 43.7812C35.9163 43.7812 44.7054 35.0898 44.7054 24.25C44.7054 13.5078 35.9163 4.71875 25.1741 4.71875C14.3343 4.71875 5.64287 13.5078 5.64287 24.25C5.64287 35.0898 14.3343 43.7812 25.1741 43.7812ZM17.3616 22.6875C15.6038 22.6875 14.2366 21.3203 14.2366 19.5625C14.2366 17.9023 15.6038 16.4375 17.3616 16.4375C19.0218 16.4375 20.4866 17.9023 20.4866 19.5625C20.4866 21.3203 19.0218 22.6875 17.3616 22.6875ZM32.9866 22.6875C31.2288 22.6875 29.8616 21.3203 29.8616 19.5625C29.8616 17.9023 31.2288 16.4375 32.9866 16.4375C34.6468 16.4375 36.1116 17.9023 36.1116 19.5625C36.1116 21.3203 34.6468 22.6875 32.9866 22.6875ZM33.3772 29.8164C34.1585 28.8398 35.6233 28.7422 36.5999 29.5234C37.6741 30.3047 37.7718 31.8672 36.8929 32.8438C33.9632 36.3594 29.6663 38.3125 25.1741 38.3125C20.5843 38.3125 16.2874 36.3594 13.3577 32.8438C12.4788 31.8672 12.6741 30.3047 13.6507 29.5234C14.6272 28.7422 16.0921 28.8398 16.971 29.8164C18.9241 32.2578 21.9515 33.625 25.1741 33.625C28.2991 33.625 31.3265 32.2578 33.3772 29.8164Z" fill="#E33439"/>
</svg>
