<svg width="70" height="70" viewBox="0 0 70 70" fill="none" xmlns="http://www.w3.org/2000/svg">
<circle cx="35" cy="35" r="33.5" fill="white" stroke="#DD4756" stroke-width="3"/>
<path d="M19.2867 46.5V22.5H20.4117V46.5H19.2867ZM20.9117 46.5V22.5H21.5367V46.5H20.9117ZM22.6617 46.5V22.5H23.1617V46.5H22.6617ZM25.4117 46.5V22.5H25.9742V46.5H25.4117ZM27.6617 46.5V22.5H28.7867V46.5H27.6617ZM30.4742 46.5V22.5H31.0367V46.5H30.4742ZM31.5992 46.5V22.5H32.1617V46.5H31.5992ZM32.7242 46.5V22.5H33.2867V46.5H32.7242ZM34.9742 46.5V22.5H36.0992V46.5H34.9742ZM37.7867 46.5V22.5H38.9117V46.5H37.7867ZM40.0367 46.5V22.5H41.1617V46.5H40.0367ZM42.2867 46.5V22.5H43.4117V46.5H42.2867ZM43.9742 46.5V22.5H45.0992V46.5H43.9742ZM46.7867 46.5V22.5H48.4742V46.5H46.7867ZM49.0367 46.5V22.5H49.5992V46.5H49.0367ZM50.1617 46.5V22.5H51.2867V46.5H50.1617Z" fill="#DD4756"/>
</svg>
