<svg width="388" height="445" viewBox="0 0 388 445" fill="none" xmlns="http://www.w3.org/2000/svg">
<path d="M347.3 31.2522C381.633 54.964 394.127 109.85 385.228 154.419C376.329 198.989 345.953 233.182 318.449 257.973C290.856 282.755 266.051 298.044 236.478 315.458C206.909 332.973 172.487 352.646 131.512 353.635C90.6179 354.621 43.1623 336.927 19.5216 302.343C-4.21686 267.762 -4.12762 216.385 8.18781 170.66C20.4098 124.94 44.8579 84.868 78.9229 61.0841C112.988 37.3001 156.755 29.8124 206.731 22.3587C256.706 14.905 312.878 7.44703 347.3 31.2522Z" fill="#FFC3C3"/>
<path d="M100.328 321.663L50.9604 289.882L48.1046 348.501L100.328 321.663Z" fill="#DD4756"/>
<path d="M310.395 1H103.597C101.388 1 99.5974 2.79087 99.5974 5.00001V354.392C99.5974 356.601 101.388 358.392 103.597 358.392H310.395C312.604 358.392 314.395 356.601 314.395 354.392V5C314.395 2.79086 312.604 1 310.395 1Z" stroke="#7F242D" stroke-linecap="round" stroke-linejoin="round"/>
<path d="M139.523 236.07C133.182 240.487 84.0055 287.524 83.6187 297.314C83.232 307.104 98.5902 391.388 101.102 395.036H124.73C124.73 395.036 122.605 314.018 124.347 311.907C126.09 309.796 190.641 273.891 190.641 273.891C190.641 273.891 169.682 216.296 139.523 236.07Z" fill="#5E383C"/>
<path d="M25.8663 178.963C34.5408 178.963 41.5729 171.935 41.5729 163.266C41.5729 154.597 34.5408 147.569 25.8663 147.569C17.1918 147.569 10.1597 154.597 10.1597 163.266C10.1597 171.935 17.1918 178.963 25.8663 178.963Z" stroke="#DD4756" stroke-linecap="round" stroke-linejoin="round"/>
<path d="M46.2262 84.4646C50.2326 84.4646 53.4803 81.2187 53.4803 77.2147C53.4803 73.2107 50.2326 69.9648 46.2262 69.9648C42.2199 69.9648 38.9721 73.2107 38.9721 77.2147C38.9721 81.2187 42.2199 84.4646 46.2262 84.4646Z" stroke="#DD4756" stroke-linecap="round" stroke-linejoin="round"/>
<path d="M176.987 268.102L141.677 224.781C141.677 224.781 180.668 198.309 204.878 198.424C206.48 201.613 266.315 313.946 289.989 358.401" stroke="#7F242D" stroke-width="0.911898" stroke-linecap="round" stroke-linejoin="round"/>
<path d="M250.565 358.392L196.493 292.039" stroke="#7F242D" stroke-width="0.911898" stroke-linecap="round" stroke-linejoin="round"/>
<path d="M92.4537 277.658C85.8498 285.303 81.188 291.776 81.069 294.762C80.6865 304.556 96.0532 388.836 98.5519 392.484H122.18C122.18 392.484 120.055 311.466 121.797 309.355C123.54 307.244 188.092 271.339 188.092 271.339C188.092 271.339 167.154 213.743 136.994 233.539C134.181 235.497 122.949 245.835 111.28 257.591" stroke="#7F242D" stroke-width="0.911898" stroke-linecap="round" stroke-linejoin="round"/>
<path d="M88.3188 392.488H136.14" stroke="#7F242D" stroke-width="0.911898" stroke-linecap="round" stroke-linejoin="round"/>
<path d="M87.8896 402.248H135.706" stroke="#7F242D" stroke-width="0.911898" stroke-linecap="round" stroke-linejoin="round"/>
<path d="M125.894 404.796C125.648 408.483 125.044 415.028 125.044 415.028L132.808 433.715L74.2186 444.626L105.636 419.513L102.36 404.796" fill="white"/>
<path d="M96.5886 422.154L103.086 416.964L99.8098 402.248" stroke="#7F242D" stroke-width="0.911898" stroke-linecap="round" stroke-linejoin="round"/>
<path d="M123.34 402.248C123.098 405.935 122.49 412.479 122.49 412.479L130.254 431.167L71.6646 442.078L85.1486 431.307" stroke="#7F242D" stroke-width="0.911898" stroke-linecap="round" stroke-linejoin="round"/>
<path d="M292.033 358.388C267.509 312.349 209.85 204.089 208.277 200.959C184.054 200.845 145.077 227.317 145.077 227.317L251.887 358.388H292.033Z" fill="#5E383C"/>
<path d="M85.6416 165.39C85.2166 170.72 83.4785 196.946 83.4785 199.248C83.4785 201.55 58.6819 230.515 56.3744 230.804C54.0668 231.093 40.5318 225.741 39.1931 225.741C37.8545 225.741 24.9569 228.417 22.8448 228.29C20.7327 228.162 22.4198 232.303 30.3836 232.235L26.2785 231.811C24.2514 232.082 23.852 232.235 22.0076 232.235C20.1633 232.235 21.0812 236.954 31.9348 236.954C33.9831 238.963 31.9348 240.088 39.9751 242.004C48.0154 243.919 56.0514 246.722 57.7513 245.69C60.8875 242.509 64.7547 238.742 71.3926 238.304C76.7174 235.081 106.843 204.349 107.451 202.629C108.058 200.908 108.645 175.655 108.645 175.655C108.645 175.655 103.082 154.449 85.6416 165.39Z" fill="white"/>
<path d="M242.083 206.965C236.061 200.806 233.643 193.799 232.526 190.312C230.167 187.496 191.7 155.88 189.532 154.916C187.365 153.952 166.559 147.067 166.559 147.067L175.508 120.425C178.483 121.933 198.355 132.317 200.955 134.258C203.556 136.199 242.746 183.278 243.707 184.374C244.667 185.47 251.67 186.409 252.206 188.481C253.85 194.92 259.604 200.955 266.183 204.854C266.306 206.676 266.99 213.14 257.327 216.189C251.567 214.423 246.337 211.253 242.109 206.965" fill="white"/>
<path d="M91.5358 43.675C111.934 43.675 121.742 70.0073 124.683 75.1038C136.157 95.0654 159.53 100.162 159.53 122.247C159.53 128.193 103.435 141.359 100.035 141.359C96.6354 141.359 91.9608 130.317 91.9608 114.602C91.9608 100.162 71.5626 97.6137 71.5626 73.405C71.5626 54.7176 74.1123 43.675 91.5358 43.675Z" fill="#B2B2B2"/>
<path d="M86.585 219.897C79.0207 227.542 71.7538 234.673 70.4662 235.535C67.6444 237.421 64.4614 236.512 62.2771 237.965C60.0928 239.417 57.0883 243.681 54.904 243.681C52.7197 243.681 39.3419 239.952 34.2423 239.137C29.1428 238.321 37.0641 233.819 45.7163 235.522" stroke="#7F242D" stroke-linecap="round" stroke-linejoin="round"/>
<path d="M106.52 190.201C106.52 193.208 105.87 199.396 105.326 200.488C105.203 200.726 103.588 202.463 101.11 205.049" stroke="#7F242D" stroke-width="0.911898" stroke-linecap="round" stroke-linejoin="round"/>
<path d="M221.171 157.94C231.285 169.943 241.085 181.724 241.569 182.251C242.53 183.347 249.533 184.285 250.068 186.358C251.713 192.796 257.467 198.832 264.041 202.73" stroke="#7F242D" stroke-width="0.911898" stroke-linecap="round" stroke-linejoin="round"/>
<path d="M173.384 118.302C176.358 119.809 196.23 130.193 198.831 132.134C199.553 132.661 203.08 136.641 207.793 142.149" stroke="#7F242D" stroke-width="0.911898" stroke-linecap="round" stroke-linejoin="round"/>
<path d="M239.801 204.327C244.514 209.08 250.179 212.69 255.176 214.066" stroke="#7F242D" stroke-width="0.911898" stroke-linecap="round" stroke-linejoin="round"/>
<path d="M162.879 144.931C166.75 146.099 184.433 151.03 188.257 153.217C192.082 155.405 228.756 183.372 230.596 189.641C231.403 192.301 232.573 194.838 234.073 197.179" stroke="#7F242D" stroke-width="0.911898" stroke-linecap="round" stroke-linejoin="round"/>
<path d="M249.41 200.36C251.428 202.233 260.357 206.982 265.108 208.855" stroke="#7F242D" stroke-width="0.911898" stroke-linecap="round" stroke-linejoin="round"/>
<path d="M251.577 207.394C254.19 209.156 255.988 209.942 260.739 211.794" stroke="#7F242D" stroke-width="0.911898" stroke-linecap="round" stroke-linejoin="round"/>
<path d="M144.979 96.382C151.932 102.723 157.405 109.433 157.405 120.123C157.405 126.069 101.31 139.236 97.9103 139.236C94.5106 139.236 89.836 128.193 89.836 112.479C89.836 98.0384 69.4377 95.4901 69.4377 71.2814C69.3967 67.7118 69.5386 64.1423 69.8627 60.5872" stroke="#7F242D" stroke-width="0.911898" stroke-linecap="round" stroke-linejoin="round"/>
<path d="M83.3213 42.1079C85.3272 41.7176 87.3675 41.5312 89.411 41.5516C109.809 41.5516 119.617 67.8838 122.558 72.9804C125.427 77.9707 129.039 82.031 132.842 85.6623" stroke="#7F242D" stroke-width="0.911898" stroke-linecap="round" stroke-linejoin="round"/>
<path d="M99.0917 127.684C88.6928 125.135 80.8523 153.404 81.29 165.029C87.4605 171.824 101.208 172.164 104.663 171.722C108.118 171.28 99.0917 127.684 99.0917 127.684Z" fill="#DD4756"/>
<path d="M79.8068 154.572C79.3371 157.324 79.1223 160.114 79.1651 162.905C85.3356 169.7 99.0832 170.04 102.538 169.598C105.993 169.157 96.9838 125.56 96.9838 125.56C90.7921 124.039 85.5098 133.447 82.3396 143.763" stroke="#7F242D" stroke-width="0.911898" stroke-linecap="round" stroke-linejoin="round"/>
<path d="M109.308 112.555C138.983 99.2785 178.721 150.214 208.702 200.959C204.92 209.194 155.361 238.334 138.885 238.075C123.489 220.666 67.7167 131.183 109.308 112.555Z" fill="#DD4756"/>
<path d="M127.913 226.268C119.481 214.334 107.914 195.145 99.8651 175.6" stroke="#7F242D" stroke-width="0.911898" stroke-linecap="round" stroke-linejoin="round"/>
<path d="M202.766 194.86C203.474 196.044 204.182 197.227 204.89 198.411C202.243 204.179 177.128 220.211 156.657 229.207" stroke="#7F242D" stroke-width="0.911898" stroke-linecap="round" stroke-linejoin="round"/>
<path d="M93.6267 157.711C87.7707 136.535 88.7184 117.516 105.483 110.007C131.691 98.2721 165.734 136.653 193.999 180.718" stroke="#7F242D" stroke-width="0.911898" stroke-linecap="round" stroke-linejoin="round"/>
<path d="M126.141 112.177C132.375 98.9431 165.87 111.655 175.861 118.361C176.681 123.946 168.407 146.817 163.639 149.051C156.7 148.452 118.389 128.639 126.141 112.177Z" fill="#DD4756"/>
<path d="M113.634 87.2209C114.25 91.1368 118.478 109.629 122.711 114.917C121.3 117.911 115.397 123.988 107.684 122.047C105.526 116.951 101.072 106.618 99.6866 104.821C98.3012 103.025 113.634 87.2209 113.634 87.2209Z" fill="white"/>
<path d="M103.877 115.983C101.603 110.72 98.6455 104.091 97.5618 102.698C96.1764 100.901 111.509 85.0974 111.509 85.0974C112.125 89.0133 116.354 107.505 120.586 112.793C119.605 114.874 116.447 118.45 112.019 119.78" stroke="#7F242D" stroke-width="0.911898" stroke-linecap="round" stroke-linejoin="round"/>
<path d="M104.816 106.653C115.056 102.867 118.707 87.2361 112.972 71.7398C107.236 56.2434 94.2851 46.75 84.0449 50.5357C73.8048 54.3215 70.1532 69.9527 75.8888 85.449C81.6245 100.945 94.5754 110.439 104.816 106.653Z" fill="white"/>
<path d="M112.495 92.5173C110.889 98.3147 107.527 102.74 102.695 104.524C98.2332 106.176 93.2569 105.301 88.5865 102.511" stroke="#7F242D" stroke-width="0.911898" stroke-linecap="round" stroke-linejoin="round"/>
<path d="M86.4363 80.6252C86.8612 81.8994 87.0142 87.0554 86.4363 89.574" stroke="#7F242D" stroke-width="0.911898" stroke-linecap="round" stroke-linejoin="round"/>
<path d="M80.9598 85.4298C81.4825 85.2775 81.5984 84.0988 81.2185 82.7973C80.8387 81.4957 80.107 80.5642 79.5843 80.7165C79.0616 80.8689 78.9457 82.0475 79.3256 83.3491C79.7054 84.6506 80.4371 85.5822 80.9598 85.4298Z" fill="#7F242D"/>
<path d="M91.6883 83.5819C92.2111 83.4296 92.3269 82.2509 91.9471 80.9494C91.5672 79.6478 90.8355 78.7163 90.3128 78.8686C89.7901 79.021 89.6743 80.1996 90.0541 81.5012C90.4339 82.8027 91.1656 83.7343 91.6883 83.5819Z" fill="#7F242D"/>
<path d="M94.7145 94.9762C95.692 94.3137 97.5065 91.6465 97.5618 89.0642" stroke="#7F242D" stroke-width="0.911898" stroke-linecap="round" stroke-linejoin="round"/>
<path d="M83.4615 66.6097C86.0113 72.5557 101.31 79.7758 117.034 78.9264C117.034 76.8028 111.934 58.1154 108.109 55.1424C104.285 52.1694 86.8612 42.8257 79.2119 50.4706C71.5626 58.1154 83.4615 66.6097 83.4615 66.6097Z" fill="#B2B2B2"/>
<path d="M84.7364 61.9378C84.7364 64.4861 77.937 84.7789 74.7456 88.011C71.1376 81.0499 70.2877 61.5131 74.5373 56.8412C78.617 52.3733 84.7364 61.9378 84.7364 61.9378Z" fill="#B2B2B2"/>
<path d="M81.8721 65.4758C85.0339 70.3685 96.0574 75.7496 108.466 76.718" stroke="#7F242D" stroke-width="0.911898" stroke-linecap="round" stroke-linejoin="round"/>
<path d="M80.5633 67.5015C78.9229 72.5301 76.5856 78.7903 74.6138 82.6722" stroke="#7F242D" stroke-width="0.911898" stroke-linecap="round" stroke-linejoin="round"/>
<path d="M107.259 83.1733C110.076 83.1733 112.359 80.8915 112.359 78.0768C112.359 75.262 110.076 72.9802 107.259 72.9802C104.443 72.9802 102.16 75.262 102.16 78.0768C102.16 80.8915 104.443 83.1733 107.259 83.1733Z" fill="white"/>
<path d="M101.76 72.9804C102.298 72.3788 102.971 71.9134 103.724 71.6224C104.477 71.3314 105.288 71.2232 106.091 71.3066C106.893 71.39 107.665 71.6627 108.342 72.1022C109.019 72.5417 109.581 73.1355 109.984 73.8347C110.386 74.534 110.617 75.3187 110.657 76.1244C110.697 76.9301 110.544 77.7337 110.213 78.4692C109.881 79.2047 109.38 79.851 108.75 80.3551C108.12 80.8591 107.379 81.2064 106.588 81.3685" stroke="#7F242D" stroke-width="0.911898" stroke-linecap="round" stroke-linejoin="round"/>
<path d="M160.129 109.323C165.654 111.477 170.447 113.889 173.303 115.813C174.123 121.398 165.849 144.269 161.081 146.503C159.827 146.392 157.558 145.653 154.707 144.434" stroke="#7F242D" stroke-width="0.911898" stroke-linecap="round" stroke-linejoin="round"/>
<path d="M142.115 137.66C130.509 130.249 119.014 119.355 123.591 109.629C126.6 103.258 135.949 102.897 145.948 105.004" stroke="#7F242D" stroke-width="0.911898" stroke-linecap="round" stroke-linejoin="round"/>
</svg>
